<svg xmlns="http://www.w3.org/2000/svg" xmlns:xlink="http://www.w3.org/1999/xlink" contentStyleType="text/css" data-diagram-type="DESCRIPTION" height="757px" preserveAspectRatio="none" style="width:586px;height:757px;background:#FFFFFF;" version="1.1" viewBox="0 0 586 757" width="586px" zoomAndPan="magnify"><?plantuml 1.2026.4beta2?><defs/><g><!--cluster Docker Host--><g class="cluster" data-qualified-name="Docker Host" data-source-line="1" id="ent0002"><polygon fill="none" points="16,124.6408,26,114.6408,561,114.6408,561,722.0208,551,732.0208,16,732.0208,16,124.6408" style="stroke:#181818;stroke-width:1;"/><line style="stroke:#181818;stroke-width:1;" x1="551" x2="561" y1="124.6408" y2="114.6408"/><line style="stroke:#181818;stroke-width:1;" x1="16" x2="551" y1="124.6408" y2="124.6408"/><line style="stroke:#181818;stroke-width:1;" x1="551" x2="551" y1="124.6408" y2="732.0208"/><text fill="#000000" font-family="sans-serif" font-size="14" font-weight="700" lengthAdjust="spacing" textLength="96.4824" x="236.2588" y="140.6359">Docker Host</text></g><!--cluster cosmoscan-gateway--><g class="cluster" data-qualified-name="Docker Host.cosmoscan-gateway" data-source-line="2" id="ent0003"><polygon fill="none" points="120,172.6408,130,162.6408,355,162.6408,355,271.2408,345,281.2408,120,281.2408,120,172.6408" style="stroke:#181818;stroke-width:1;"/><line style="stroke:#181818;stroke-width:1;" x1="345" x2="355" y1="172.6408" y2="162.6408"/><line style="stroke:#181818;stroke-width:1;" x1="120" x2="345" y1="172.6408" y2="172.6408"/><line style="stroke:#181818;stroke-width:1;" x1="345" x2="345" y1="172.6408" y2="281.2408"/><text fill="#000000" font-family="sans-serif" font-size="14" font-weight="700" lengthAdjust="spacing" textLength="159.4756" x="153.7622" y="188.6359">cosmoscan-gateway</text></g><!--cluster cosmoscan-file--><g class="cluster" data-qualified-name="Docker Host.cosmoscan-file" data-source-line="6" id="ent0005"><polygon fill="none" points="40,507.8308,50,497.8308,233,497.8308,233,606.4308,223,616.4308,40,616.4308,40,507.8308" style="stroke:#181818;stroke-width:1;"/><line style="stroke:#181818;stroke-width:1;" x1="223" x2="233" y1="507.8308" y2="497.8308"/><line style="stroke:#181818;stroke-width:1;" x1="40" x2="223" y1="507.8308" y2="507.8308"/><line style="stroke:#181818;stroke-width:1;" x1="223" x2="223" y1="507.8308" y2="616.4308"/><text fill="#000000" font-family="sans-serif" font-size="14" font-weight="700" lengthAdjust="spacing" textLength="117.4961" x="73.752" y="523.8259">cosmoscan-file</text></g><!--cluster cosmoscan-analysis--><g class="cluster" data-qualified-name="Docker Host.cosmoscan-analysis" data-source-line="10" id="ent0007"><polygon fill="none" points="165,340.2408,175,330.2408,397,330.2408,397,438.8308,387,448.8308,165,448.8308,165,340.2408" style="stroke:#181818;stroke-width:1;"/><line style="stroke:#181818;stroke-width:1;" x1="387" x2="397" y1="340.2408" y2="330.2408"/><line style="stroke:#181818;stroke-width:1;" x1="165" x2="387" y1="340.2408" y2="340.2408"/><line style="stroke:#181818;stroke-width:1;" x1="387" x2="387" y1="340.2408" y2="448.8308"/><text fill="#000000" font-family="sans-serif" font-size="14" font-weight="700" lengthAdjust="spacing" textLength="156.5635" x="198.7183" y="356.2359">cosmoscan-analysis</text></g><!--entity FDB--><g class="entity" data-qualified-name="Docker Host.FDB" data-source-line="14" id="ent0009"><path d="M413.44,548.3308 C413.44,538.3308 478.9991,538.3308 478.9991,538.3308 C478.9991,538.3308 544.5582,538.3308 544.5582,548.3308 L544.5582,589.9245 C544.5582,599.9245 478.9991,599.9245 478.9991,599.9245 C478.9991,599.9245 413.44,599.9245 413.44,589.9245 L413.44,548.3308" fill="#F1F1F1" style="stroke:#181818;stroke-width:0.5;"/><path d="M413.44,548.3308 C413.44,558.3308 478.9991,558.3308 478.9991,558.3308 C478.9991,558.3308 544.5582,558.3308 544.5582,548.3308" fill="none" style="stroke:#181818;stroke-width:0.5;"/><text fill="#000000" font-family="sans-serif" font-size="14" lengthAdjust="spacing" textLength="111.1182" x="423.44" y="575.3259">H2 (in-memory)</text><text fill="#000000" font-family="sans-serif" font-size="14" lengthAdjust="spacing" textLength="39.0947" x="423.44" y="591.6228">filedb</text></g><!--entity ADB--><g class="entity" data-qualified-name="Docker Host.ADB" data-source-line="15" id="ent0010"><path d="M413.44,380.7408 C413.44,370.7408 478.9991,370.7408 478.9991,370.7408 C478.9991,370.7408 544.5582,370.7408 544.5582,380.7408 L544.5582,422.3345 C544.5582,432.3345 478.9991,432.3345 478.9991,432.3345 C478.9991,432.3345 413.44,432.3345 413.44,422.3345 L413.44,380.7408" fill="#F1F1F1" style="stroke:#181818;stroke-width:0.5;"/><path d="M413.44,380.7408 C413.44,390.7408 478.9991,390.7408 478.9991,390.7408 C478.9991,390.7408 544.5582,390.7408 544.5582,380.7408" fill="none" style="stroke:#181818;stroke-width:0.5;"/><text fill="#000000" font-family="sans-serif" font-size="14" lengthAdjust="spacing" textLength="111.1182" x="423.44" y="407.7359">H2 (in-memory)</text><text fill="#000000" font-family="sans-serif" font-size="14" lengthAdjust="spacing" textLength="74.457" x="423.44" y="424.0328">analysisdb</text></g><!--entity FileVol--><g class="entity" data-qualified-name="Docker Host.FileVol" data-source-line="17" id="ent0011"><rect fill="#F1F1F1" height="52.5938" rx="35" ry="35" style="stroke:#181818;stroke-width:0.5;" width="77.9072" x="115.05" y="663.4308"/><text fill="#000000" font-family="sans-serif" font-size="14" lengthAdjust="spacing" textLength="53.1563" x="125.05" y="686.4259">Volume</text><text fill="#000000" font-family="sans-serif" font-size="14" lengthAdjust="spacing" textLength="57.9072" x="125.05" y="702.7228">file-data</text></g><!--entity CloudVol--><g class="entity" data-qualified-name="Docker Host.CloudVol" data-source-line="18" id="ent0012"><rect fill="#F1F1F1" height="52.5938" rx="35" ry="35" style="stroke:#181818;stroke-width:0.5;" width="129.1563" x="249.42" y="542.8308"/><text fill="#000000" font-family="sans-serif" font-size="14" lengthAdjust="spacing" textLength="53.1563" x="259.42" y="565.8259">Volume</text><text fill="#000000" font-family="sans-serif" font-size="14" lengthAdjust="spacing" textLength="109.1563" x="259.42" y="582.1228">wordcloud-data</text></g><!--entity GW--><g class="entity" data-qualified-name="Docker Host.cosmoscan-gateway.GW" data-source-line="3" id="ent0004"><rect fill="#F1F1F1" height="62.5938" rx="2.5" ry="2.5" style="stroke:#181818;stroke-width:0.5;" width="128.4434" x="172.78" y="202.6408"/><rect fill="#F1F1F1" height="10" style="stroke:#181818;stroke-width:0.5;" width="15" x="281.2234" y="207.6408"/><rect fill="#F1F1F1" height="2" style="stroke:#181818;stroke-width:0.5;" width="4" x="279.2234" y="209.6408"/><rect fill="#F1F1F1" height="2" style="stroke:#181818;stroke-width:0.5;" width="4" x="279.2234" y="213.6408"/><text fill="#000000" font-family="sans-serif" font-size="14" lengthAdjust="spacing" textLength="88.4434" x="187.78" y="235.6359">API Gateway</text><text fill="#000000" font-family="sans-serif" font-size="14" lengthAdjust="spacing" textLength="40.3457" x="187.78" y="251.9328">:8080</text></g><!--entity FS--><g class="entity" data-qualified-name="Docker Host.cosmoscan-file.FS" data-source-line="7" id="ent0006"><rect fill="#F1F1F1" height="62.5938" rx="2.5" ry="2.5" style="stroke:#181818;stroke-width:0.5;" width="120.6367" x="93.68" y="537.8308"/><rect fill="#F1F1F1" height="10" style="stroke:#181818;stroke-width:0.5;" width="15" x="194.3167" y="542.8308"/><rect fill="#F1F1F1" height="2" style="stroke:#181818;stroke-width:0.5;" width="4" x="192.3167" y="544.8308"/><rect fill="#F1F1F1" height="2" style="stroke:#181818;stroke-width:0.5;" width="4" x="192.3167" y="548.8308"/><text fill="#000000" font-family="sans-serif" font-size="14" lengthAdjust="spacing" textLength="80.6367" x="108.68" y="570.8259">File Service</text><text fill="#000000" font-family="sans-serif" font-size="14" lengthAdjust="spacing" textLength="40.3457" x="108.68" y="587.1228">:8081</text></g><!--entity AS--><g class="entity" data-qualified-name="Docker Host.cosmoscan-analysis.AS" data-source-line="11" id="ent0008"><rect fill="#F1F1F1" height="62.5938" rx="2.5" ry="2.5" style="stroke:#181818;stroke-width:0.5;" width="153.873" x="204.06" y="370.2408"/><rect fill="#F1F1F1" height="10" style="stroke:#181818;stroke-width:0.5;" width="15" x="337.933" y="375.2408"/><rect fill="#F1F1F1" height="2" style="stroke:#181818;stroke-width:0.5;" width="4" x="335.933" y="377.2408"/><rect fill="#F1F1F1" height="2" style="stroke:#181818;stroke-width:0.5;" width="4" x="335.933" y="381.2408"/><text fill="#000000" font-family="sans-serif" font-size="14" lengthAdjust="spacing" textLength="113.873" x="219.06" y="403.2359">Analysis Service</text><text fill="#000000" font-family="sans-serif" font-size="14" lengthAdjust="spacing" textLength="40.3457" x="219.06" y="419.5328">:8082</text></g><!--entity User--><g class="entity" data-qualified-name="User" data-source-line="21" id="ent0013"><path d="M179.5897,14.5058 C182.8065,7.3173 188.1518,7.2192 192.2604,13.6778 C195.2808,8.2938 199.3098,8.7203 202.3748,13.6342 C205.1945,7.789 210.9181,7.411 214.3401,13.0042 C217.6605,7.6511 224.0883,7.0061 227.4399,12.9681 C230.0989,7.6904 235.2256,7.1968 238.6693,12.1028 C241.8502,6 247.8434,6.6673 250.73,12.4027 C254.0212,8.3843 257.6481,7.2726 260.6898,12.6666 C265.3423,7.3194 269.7174,6.3914 274.0616,13.0111 C277.8257,8.4219 283.1746,8.6478 285.1842,14.8238 C288.9222,10.4395 292.5621,10.2814 296.1366,15.02 C304.4937,17.826 304.0568,24.0474 299.0852,29.5569 C306.7624,35.2421 305.6207,41.6258 297.4448,45.7 C292.7239,51.5703 288.739,51.1782 284.5994,45.0763 C281.6097,50.8054 276.3284,52.429 272.135,46.3466 C268.7808,51.1224 263.665,51.7294 260.6123,46.0154 C256.3035,51.7258 252.2432,51.2946 249.0062,44.9808 C246.4009,49.4132 241.2725,50.7457 238.3748,45.2953 C234.4793,51.575 229.496,50.26 226.1659,44.7117 C223.6009,51.5411 218.3627,51.4934 214.0316,46.5287 C210.4344,51.347 205.1852,50.6928 202.4235,45.5546 C199.6495,50.6949 194.5926,50.2808 191.5629,45.8446 C187.8923,51.276 181.5646,51.4663 178.8991,44.7931 C171.9156,40.5869 170.6975,34.5612 178.113,29.6095 C170.2297,24.6407 171.5484,17.9176 179.5897,14.5058" fill="#F1F1F1" style="stroke:#181818;stroke-width:0.5;"/><text fill="#000000" font-family="sans-serif" font-size="14" lengthAdjust="spacing" textLength="103.0996" x="185.45" y="33.3459">&#1055;&#1086;&#1083;&#1100;&#1079;&#1086;&#1074;&#1072;&#1090;&#1077;&#1083;&#1100;</text></g><!--link User to GW--><g class="link" data-entity-1="ent0013" data-entity-2="ent0004" data-link-type="dependency" data-source-line="23" id="lnk14"><path d="M237,52.0508 C237,88.6708 237,155.1308 237,196.3608" fill="none" id="User-to-GW" style="stroke:#181818;stroke-width:1;"/><polygon fill="#181818" points="237,202.3608,241,193.3608,237,197.3608,233,193.3608,237,202.3608" style="stroke:#181818;stroke-width:1;"/><text fill="#000000" font-family="sans-serif" font-size="13" lengthAdjust="spacing" textLength="75.0928" x="238" y="94.7077">HTTP :8080</text></g><!--link GW to FS--><g class="link" data-entity-1="ent0004" data-entity-2="ent0006" data-link-type="dependency" data-source-line="24" id="lnk15"><path d="M172.53,264.2308 C149.08,278.3008 124.93,297.5608 111,322.2408 C76.07,384.1008 82.97,413.3808 102,481.8308 C107.58,501.8908 115.7932,517.0017 126.6432,532.7317" fill="none" id="GW-to-FS" style="stroke:#181818;stroke-width:1;"/><polygon fill="#181818" points="130.05,537.6708,128.2325,527.9911,127.211,533.5549,121.6472,532.5334,130.05,537.6708" style="stroke:#181818;stroke-width:1;"/><text fill="#000000" font-family="sans-serif" font-size="13" lengthAdjust="spacing" textLength="75.0928" x="112" y="406.1077">HTTP :8081</text></g><!--link GW to AS--><g class="link" data-entity-1="ent0004" data-entity-2="ent0008" data-link-type="dependency" data-source-line="25" id="lnk16"><path d="M245.17,265.7008 C253.08,295.4408 263.439,334.452 271.329,364.142" fill="none" id="GW-to-AS" style="stroke:#181818;stroke-width:1;"/><polygon fill="#181818" points="272.87,369.9408,274.4243,360.2153,271.5858,365.1085,266.6927,362.27,272.87,369.9408" style="stroke:#181818;stroke-width:1;"/><text fill="#000000" font-family="sans-serif" font-size="13" lengthAdjust="spacing" textLength="75.0928" x="258" y="310.3077">HTTP :8082</text></g><!--link AS to FS--><g class="link" data-entity-1="ent0008" data-entity-2="ent0006" data-link-type="dependency" data-source-line="26" id="lnk17"><path d="M217.97,433.2608 C198.73,441.7908 177.29,450.4408 157,456.8308 C139.71,462.2808 128.49,450.8108 117,464.8308 C99.85,485.7508 109.7104,510.3068 124.9204,532.4268" fill="none" id="AS-to-FS" style="stroke:#181818;stroke-width:1;"/><polygon fill="#181818" points="128.32,537.3708,126.5167,527.6884,125.487,533.2508,119.9247,532.2211,128.32,537.3708" style="stroke:#181818;stroke-width:1;"/><text fill="#000000" font-family="sans-serif" font-size="13" lengthAdjust="spacing" textLength="75.0928" x="118" y="477.8977">HTTP :8081</text></g><!--link FS to FDB--><g class="link" data-entity-1="ent0006" data-entity-2="ent0009" data-link-type="dependency" data-source-line="28" id="lnk18"><path d="M169.8,537.7808 C183.53,514.6008 205.87,485.1008 235.5,473.3308 C265.03,461.6008 348.97,461.6008 378.5,473.3308 C410.98,486.2308 435.1722,510.5573 453.2822,533.2973" fill="none" id="FS-to-FDB" style="stroke:#181818;stroke-width:1;"/><polygon fill="#181818" points="457.02,537.9908,454.5422,528.4587,453.9051,534.0796,448.2843,533.4425,457.02,537.9908" style="stroke:#181818;stroke-width:1;"/></g><!--link FS to FileVol--><g class="link" data-entity-1="ent0006" data-entity-2="ent0011" data-link-type="dependency" data-source-line="29" id="lnk19"><path d="M154,600.6708 C154,620.0208 154,638.7708 154,657.1008" fill="none" id="FS-to-FileVol" style="stroke:#181818;stroke-width:1;"/><polygon fill="#181818" points="154,663.1008,158,654.1008,154,658.1008,150,654.1008,154,663.1008" style="stroke:#181818;stroke-width:1;"/></g><!--link AS to ADB--><g class="link" data-entity-1="ent0008" data-entity-2="ent0010" data-link-type="dependency" data-source-line="30" id="lnk20"><path d="M358.34,401.5408 C376.57,401.5408 388.79,401.5408 407.02,401.5408" fill="none" id="AS-to-ADB" style="stroke:#181818;stroke-width:1;"/><polygon fill="#181818" points="413.02,401.5408,404.02,397.5408,408.02,401.5408,404.02,405.5408,413.02,401.5408" style="stroke:#181818;stroke-width:1;"/></g><!--link AS to CloudVol--><g class="link" data-entity-1="ent0008" data-entity-2="ent0012" data-link-type="dependency" data-source-line="31" id="lnk21"><path d="M287.13,433.2908 C293.39,464.7208 301.8375,507.0864 307.7075,536.5464" fill="none" id="AS-to-CloudVol" style="stroke:#181818;stroke-width:1;"/><polygon fill="#181818" points="308.88,542.4308,311.0442,532.8226,307.9029,537.5272,303.1984,534.3859,308.88,542.4308" style="stroke:#181818;stroke-width:1;"/></g><?plantuml-src XP6nJiCm48PtFyKf4moMsanL1wH0bOQjKWeCbC6DJOX8RCbEYIBKXPbtu1KG4c90uXdSDwhj928HHVLmrjt_twSxcmlAm9k9v959Y8GgFNX6O0vtGY9K8LH2E4v9oIfITx8zjy7Y4kPDVSMdaz5aT0T4mVp6MROk7eJTPpaRa49JW9Z9fonX3MhiK65y34KuoMkLgU5WRN68z1qo-8Eaf2HheWmsyk4auxXWXP3rwOhREUdQSvFCpe-OkqdQXg1jS46LGfBKD5sBV5EmXemjgu6Rp2Y7hPMGDCd5XlxwBsng6xO8EGay_QP_zFVkLN-P-qE_xrxqfysT_qenYP2DWAceE3updmHJY9RB1RYFGoRlf33kI-E-50ma7vdylova2bXcwKDfHVCOOS_RxXlqBFQzUhXknJq0?></g></svg>