<svg xmlns="http://www.w3.org/2000/svg" xmlns:xlink="http://www.w3.org/1999/xlink" contentStyleType="text/css" data-diagram-type="DESCRIPTION" height="828px" preserveAspectRatio="none" style="width:714px;height:828px;background:#FFFFFF;" version="1.1" viewBox="0 0 714 828" width="714px" zoomAndPan="magnify"><?plantuml 1.2026.4beta2?><defs/><g><!--cluster Docker Host--><g class="cluster" data-qualified-name="Docker Host" data-source-line="1" id="ent0002"><path d="M8.5,6 L105.9824,6 A3.75,3.75 0 0 1 108.4824,8.5 L115.4824,28.2969 L696.5,28.2969 A2.5,2.5 0 0 1 699,30.7969 L699,810.55 A2.5,2.5 0 0 1 696.5,813.05 L8.5,813.05 A2.5,2.5 0 0 1 6,810.55 L6,8.5 A2.5,2.5 0 0 1 8.5,6" fill="none" style="stroke:#000000;stroke-width:1.5;"/><line style="stroke:#000000;stroke-width:1.5;" x1="6" x2="115.4824" y1="28.2969" y2="28.2969"/><text fill="#000000" font-family="sans-serif" font-size="14" font-weight="700" lengthAdjust="spacing" textLength="96.4824" x="10" y="20.9951">Docker Host</text></g><!--cluster CosmoScan System--><g class="cluster" data-qualified-name="Docker Host.CosmoScan System" data-source-line="2" id="ent0003"><path d="M32.5,166.6 L186.9189,166.6 A3.75,3.75 0 0 1 189.4189,169.1 L196.4189,188.8969 L355.5,188.8969 A2.5,2.5 0 0 1 358,191.3969 L358,685.96 A2.5,2.5 0 0 1 355.5,688.46 L32.5,688.46 A2.5,2.5 0 0 1 30,685.96 L30,169.1 A2.5,2.5 0 0 1 32.5,166.6" fill="none" style="stroke:#000000;stroke-width:1.5;"/><line style="stroke:#000000;stroke-width:1.5;" x1="30" x2="196.4189" y1="188.8969" y2="188.8969"/><text fill="#000000" font-family="sans-serif" font-size="14" font-weight="700" lengthAdjust="spacing" textLength="153.4189" x="34" y="181.5951">CosmoScan System</text></g><!--entity FDB--><g class="entity" data-qualified-name="Docker Host.FDB" data-source-line="8" id="ent0007"><path d="M40.91,745.46 C40.91,735.46 98.9974,735.46 98.9974,735.46 C98.9974,735.46 157.0848,735.46 157.0848,745.46 L157.0848,787.0537 C157.0848,797.0537 98.9974,797.0537 98.9974,797.0537 C98.9974,797.0537 40.91,797.0537 40.91,787.0537 L40.91,745.46" fill="#F1F1F1" style="stroke:#181818;stroke-width:0.5;"/><path d="M40.91,745.46 C40.91,755.46 98.9974,755.46 98.9974,755.46 C98.9974,755.46 157.0848,755.46 157.0848,745.46" fill="none" style="stroke:#181818;stroke-width:0.5;"/><text fill="#000000" font-family="sans-serif" font-size="14" lengthAdjust="spacing" textLength="90.6855" x="50.91" y="772.4551">H2 Database</text><text fill="#000000" font-family="sans-serif" font-size="14" lengthAdjust="spacing" textLength="96.1748" x="50.91" y="788.752">file_metadata</text></g><!--entity ADB--><g class="entity" data-qualified-name="Docker Host.ADB" data-source-line="9" id="ent0008"><path d="M373.98,604.07 C373.98,594.07 441.002,594.07 441.002,594.07 C441.002,594.07 508.0239,594.07 508.0239,604.07 L508.0239,645.6637 C508.0239,655.6637 441.002,655.6637 441.002,655.6637 C441.002,655.6637 373.98,655.6637 373.98,645.6637 L373.98,604.07" fill="#F1F1F1" style="stroke:#181818;stroke-width:0.5;"/><path d="M373.98,604.07 C373.98,614.07 441.002,614.07 441.002,614.07 C441.002,614.07 508.0239,614.07 508.0239,604.07" fill="none" style="stroke:#181818;stroke-width:0.5;"/><text fill="#000000" font-family="sans-serif" font-size="14" lengthAdjust="spacing" textLength="90.6855" x="383.98" y="631.0651">H2 Database</text><text fill="#000000" font-family="sans-serif" font-size="14" lengthAdjust="spacing" textLength="114.0439" x="383.98" y="647.362">analysis_reports</text></g><!--entity FileVol--><g class="entity" data-qualified-name="Docker Host.FileVol" data-source-line="10" id="ent0009"><rect fill="#F1F1F1" height="52.5938" rx="35" ry="35" style="stroke:#181818;stroke-width:0.5;" width="89.583" x="192.21" y="739.96"/><text fill="#000000" font-family="sans-serif" font-size="14" lengthAdjust="spacing" textLength="53.1563" x="202.21" y="762.9551">Volume</text><text fill="#000000" font-family="sans-serif" font-size="14" lengthAdjust="spacing" textLength="69.583" x="202.21" y="779.252">/data/files</text></g><!--entity CloudVol--><g class="entity" data-qualified-name="Docker Host.CloudVol" data-source-line="11" id="ent0010"><rect fill="#F1F1F1" height="52.5938" rx="35" ry="35" style="stroke:#181818;stroke-width:0.5;" width="140.832" x="542.58" y="598.57"/><text fill="#000000" font-family="sans-serif" font-size="14" lengthAdjust="spacing" textLength="53.1563" x="552.58" y="621.5651">Volume</text><text fill="#000000" font-family="sans-serif" font-size="14" lengthAdjust="spacing" textLength="120.832" x="552.58" y="637.862">/data/wordclouds</text></g><!--entity User--><g class="entity" data-qualified-name="Docker Host.User" data-source-line="13" id="ent0011"><rect fill="#F1F1F1" height="62.5938" rx="2.5" ry="2.5" style="stroke:#181818;stroke-width:0.5;" width="177.5801" x="105.21" y="41"/><rect fill="#F1F1F1" height="10" style="stroke:#181818;stroke-width:0.5;" width="15" x="262.7901" y="46"/><rect fill="#F1F1F1" height="2" style="stroke:#181818;stroke-width:0.5;" width="4" x="260.7901" y="48"/><rect fill="#F1F1F1" height="2" style="stroke:#181818;stroke-width:0.5;" width="4" x="260.7901" y="52"/><text fill="#000000" font-family="sans-serif" font-size="14" lengthAdjust="spacing" textLength="103.0996" x="120.21" y="73.9951">&#1055;&#1086;&#1083;&#1100;&#1079;&#1086;&#1074;&#1072;&#1090;&#1077;&#1083;&#1100;</text><text fill="#000000" font-family="sans-serif" font-size="14" lengthAdjust="spacing" textLength="137.5801" x="120.21" y="90.292">(Postman/Swagger)</text></g><!--entity GW--><g class="entity" data-qualified-name="Docker Host.CosmoScan System.GW" data-source-line="3" id="ent0004"><rect fill="#F1F1F1" height="95.1875" rx="2.5" ry="2.5" style="stroke:#181818;stroke-width:0.5;" width="195.9141" x="96.04" y="201.6"/><rect fill="#F1F1F1" height="10" style="stroke:#181818;stroke-width:0.5;" width="15" x="271.9541" y="206.6"/><rect fill="#F1F1F1" height="2" style="stroke:#181818;stroke-width:0.5;" width="4" x="269.9541" y="208.6"/><rect fill="#F1F1F1" height="2" style="stroke:#181818;stroke-width:0.5;" width="4" x="269.9541" y="212.6"/><text fill="#000000" font-family="sans-serif" font-size="14" lengthAdjust="spacing" textLength="88.4434" x="111.04" y="234.5951">API Gateway</text><text fill="#000000" font-family="sans-serif" font-size="14" lengthAdjust="spacing" textLength="155.9141" x="111.04" y="250.892">Spring Cloud Gateway</text><text fill="#000000" font-family="sans-serif" font-size="14" lengthAdjust="spacing" textLength="60.4434" x="111.04" y="267.1889">WebFlux</text><text fill="#000000" font-family="sans-serif" font-size="14" lengthAdjust="spacing" textLength="40.3457" x="111.04" y="283.4857">:8080</text></g><!--entity FS--><g class="entity" data-qualified-name="Docker Host.CosmoScan System.FS" data-source-line="4" id="ent0005"><rect fill="#F1F1F1" height="95.1875" rx="2.5" ry="2.5" style="stroke:#181818;stroke-width:0.5;" width="157.7354" x="55.13" y="577.27"/><rect fill="#F1F1F1" height="10" style="stroke:#181818;stroke-width:0.5;" width="15" x="192.8654" y="582.27"/><rect fill="#F1F1F1" height="2" style="stroke:#181818;stroke-width:0.5;" width="4" x="190.8654" y="584.27"/><rect fill="#F1F1F1" height="2" style="stroke:#181818;stroke-width:0.5;" width="4" x="190.8654" y="588.27"/><text fill="#000000" font-family="sans-serif" font-size="14" lengthAdjust="spacing" textLength="80.6367" x="70.13" y="610.2651">File Service</text><text fill="#000000" font-family="sans-serif" font-size="14" lengthAdjust="spacing" textLength="117.7354" x="70.13" y="626.562">Spring Boot MVC</text><text fill="#000000" font-family="sans-serif" font-size="14" lengthAdjust="spacing" textLength="62.2139" x="70.13" y="642.8589">JPA + H2</text><text fill="#000000" font-family="sans-serif" font-size="14" lengthAdjust="spacing" textLength="40.3457" x="70.13" y="659.1557">:8081</text></g><!--entity AS--><g class="entity" data-qualified-name="Docker Host.CosmoScan System.AS" data-source-line="5" id="ent0006"><rect fill="#F1F1F1" height="111.4844" rx="2.5" ry="2.5" style="stroke:#181818;stroke-width:0.5;" width="157.7354" x="184.13" y="373.78"/><rect fill="#F1F1F1" height="10" style="stroke:#181818;stroke-width:0.5;" width="15" x="321.8654" y="378.78"/><rect fill="#F1F1F1" height="2" style="stroke:#181818;stroke-width:0.5;" width="4" x="319.8654" y="380.78"/><rect fill="#F1F1F1" height="2" style="stroke:#181818;stroke-width:0.5;" width="4" x="319.8654" y="384.78"/><text fill="#000000" font-family="sans-serif" font-size="14" lengthAdjust="spacing" textLength="113.873" x="199.13" y="406.7751">Analysis Service</text><text fill="#000000" font-family="sans-serif" font-size="14" lengthAdjust="spacing" textLength="117.7354" x="199.13" y="423.072">Spring Boot MVC</text><text fill="#000000" font-family="sans-serif" font-size="14" lengthAdjust="spacing" textLength="62.2139" x="199.13" y="439.3689">JPA + H2</text><text fill="#000000" font-family="sans-serif" font-size="14" lengthAdjust="spacing" textLength="83.8975" x="199.13" y="455.6657">Resilience4j</text><text fill="#000000" font-family="sans-serif" font-size="14" lengthAdjust="spacing" textLength="40.3457" x="199.13" y="471.9626">:8082</text></g><!--link User to GW--><g class="link" data-entity-1="ent0011" data-entity-2="ent0004" data-link-type="dependency" data-source-line="16" id="lnk12"><path d="M194,103.76 C194,130.68 194,164.34 194,195.3" fill="none" id="User-to-GW" style="stroke:#181818;stroke-width:1;"/><polygon fill="#181818" points="194,201.3,198,192.3,194,196.3,190,192.3,194,201.3" style="stroke:#181818;stroke-width:1;"/><text fill="#000000" font-family="sans-serif" font-size="13" lengthAdjust="spacing" textLength="71.0684" x="195" y="146.6669">HTTP REST</text></g><!--link GW to FS--><g class="link" data-entity-1="ent0004" data-entity-2="ent0005" data-link-type="dependency" data-source-line="17" id="lnk13"><path d="M146.15,297.14 C127.64,318.57 108.62,345.47 99,373.78 C75.79,442.06 94.8664,520.1909 112.8964,571.3709" fill="none" id="GW-to-FS" style="stroke:#181818;stroke-width:1;"/><polygon fill="#181818" points="114.89,577.03,115.6723,567.2123,113.2286,572.3141,108.1268,569.8704,114.89,577.03" style="stroke:#181818;stroke-width:1;"/><text fill="#000000" font-family="sans-serif" font-size="13" lengthAdjust="spacing" textLength="66.7393" x="100" y="434.0969">WebClient</text></g><!--link GW to AS--><g class="link" data-entity-1="ent0004" data-entity-2="ent0006" data-link-type="dependency" data-source-line="18" id="lnk14"><path d="M212.13,297.05 C221.19,320.47 230.0545,343.3744 239.5245,367.8444" fill="none" id="GW-to-AS" style="stroke:#181818;stroke-width:1;"/><polygon fill="#181818" points="241.69,373.44,242.1721,363.6029,239.8854,368.777,234.7113,366.4903,241.69,373.44" style="stroke:#181818;stroke-width:1;"/><text fill="#000000" font-family="sans-serif" font-size="13" lengthAdjust="spacing" textLength="66.7393" x="229" y="339.8469">WebClient</text></g><!--link AS to FS--><g class="link" data-entity-1="ent0006" data-entity-2="ent0005" data-link-type="dependency" data-source-line="19" id="lnk15"><path d="M183.67,468.02 C165.6,480.45 148.61,496.12 138,515.27 C127.76,533.75 125.4301,550.8565 126.3701,570.9865" fill="none" id="AS-to-FS" style="stroke:#181818;stroke-width:1;"/><polygon fill="#181818" points="126.65,576.98,130.2258,567.8032,126.4168,571.9854,122.2345,568.1764,126.65,576.98" style="stroke:#181818;stroke-width:1;"/><text fill="#000000" font-family="sans-serif" font-size="13" lengthAdjust="spacing" textLength="66.7393" x="161.823" y="528.3369">WebClient</text><text fill="#000000" font-family="sans-serif" font-size="13" lengthAdjust="spacing" textLength="112.3853" x="139" y="543.4697">+ Circuit Breaker</text></g><!--link FS to FDB--><g class="link" data-entity-1="ent0005" data-entity-2="ent0007" data-link-type="dependency" data-source-line="21" id="lnk16"><path d="M122.25,672.67 C117.08,693.23 112.6305,710.9605 108.0605,729.1705" fill="none" id="FS-to-FDB" style="stroke:#181818;stroke-width:1;"/><polygon fill="#181818" points="106.6,734.99,112.6704,727.2343,107.8171,730.1404,104.911,725.287,106.6,734.99" style="stroke:#181818;stroke-width:1;"/></g><!--link FS to FileVol--><g class="link" data-entity-1="ent0005" data-entity-2="ent0009" data-link-type="dependency" data-source-line="22" id="lnk17"><path d="M168.58,672.67 C185.06,694.97 200.5856,715.9635 214.3956,734.6635" fill="none" id="FS-to-FileVol" style="stroke:#181818;stroke-width:1;"/><polygon fill="#181818" points="217.96,739.49,215.8311,729.874,214.9897,735.4679,209.3958,734.6265,217.96,739.49" style="stroke:#181818;stroke-width:1;"/></g><!--link AS to ADB--><g class="link" data-entity-1="ent0006" data-entity-2="ent0008" data-link-type="dependency" data-source-line="23" id="lnk18"><path d="M313.77,485.67 C346.04,520.72 382.5164,560.3356 409.0464,589.1556" fill="none" id="AS-to-ADB" style="stroke:#181818;stroke-width:1;"/><polygon fill="#181818" points="413.11,593.57,409.9575,584.2393,409.7236,589.8913,404.0716,589.6575,413.11,593.57" style="stroke:#181818;stroke-width:1;"/></g><!--link AS to CloudVol--><g class="link" data-entity-1="ent0006" data-entity-2="ent0010" data-link-type="dependency" data-source-line="24" id="lnk19"><path d="M341.98,474.16 C411.14,512.36 504.0181,563.6588 561.2581,595.2788" fill="none" id="AS-to-CloudVol" style="stroke:#181818;stroke-width:1;"/><polygon fill="#181818" points="566.51,598.18,560.5662,590.3269,562.1334,595.7623,556.6979,597.3295,566.51,598.18" style="stroke:#181818;stroke-width:1;"/></g><?plantuml-src ZLBDIiD04BxdAOQUb2AjnKFfGKXJqoW8eLlRGoDbcwuXDjaDkrjhaLuy-mw-WWZYGV0PqZToTvDOHIZkONRdv_ioyqqo72vmHA3MO-62SF2Oa3Lui42ThCevJAGCXPW2MWj9qgf0dudjdqCVIxB2wu2YZCSq0YTXo_akEYOpDrdU1xJJRhQRru05zCSx1ZTE2232x-AGV5Dq6PDmEN82Uk7RK0UlLS2F3Tn5FngWE5cBMFoBOa14dCI4XkJajY1i6KAx8DmOQymSIpp3GetljQ1NEW6zKSrEKoAnpjTCBxtkFW0ksvjoaZ4kXS7O9KP8net48vOiKrNTq2mD_P6YK6kZSlkALupFGoruWJ3QLn1Z9lbp_fb_R9_oTtM_vY_Rn_nD-m4zyDM-KqmRQ8MZYF138yQL8DpQM9Q-uUZeL6qBEk0DXpuCpj3GKgwEkaX5rMuTBQYielRlg7B_rWQq3axCmsKieSi9Ld-UPRbbfPAcUfR3bnnQjF9P3Va5?></g></svg>