<svg xmlns="http://www.w3.org/2000/svg" xmlns:xlink="http://www.w3.org/1999/xlink" contentStyleType="text/css" data-diagram-type="CLASS" height="406px" preserveAspectRatio="none" style="width:424px;height:406px;background:#FFFFFF;" version="1.1" viewBox="0 0 424 406" width="424px" zoomAndPan="magnify"><?plantuml 1.2026.4beta2?><defs/><g><!--class file_metadata--><g class="entity" data-qualified-name="file_metadata" data-source-line="1" id="ent0002"><rect fill="#F1F1F1" height="145.7813" rx="2.5" ry="2.5" style="stroke:#181818;stroke-width:0.5;" width="266.1055" x="75.13" y="7"/><ellipse cx="155.8453" cy="23" fill="#ADD1B2" rx="11" ry="11" style="stroke:#181818;stroke-width:1;"/><path d="M159.9547,29 L152.236,29 L152.236,16.6094 L159.9547,16.6094 L159.9547,18.7656 L154.6891,18.7656 L154.6891,21.4375 L159.4547,21.4375 L159.4547,23.5938 L154.6891,23.5938 L154.6891,26.8438 L159.9547,26.8438 L159.9547,29 Z " fill="#000000"/><text fill="#000000" font-family="sans-serif" font-size="14" lengthAdjust="spacing" textLength="96.1748" x="176.3453" y="27.8467">file_metadata</text><line style="stroke:#181818;stroke-width:0.5;" x1="76.13" x2="340.2355" y1="39" y2="39"/><g data-visibility-modifier="IE_MANDATORY"><ellipse cx="86.13" cy="52.6484" fill="#000000" rx="3" ry="3" style="stroke:#000000;stroke-width:1;"/></g><text fill="#000000" font-family="sans-serif" font-size="14" lengthAdjust="spacing" textLength="162.8252" x="95.13" y="55.9951">id : VARCHAR(36) &#171;PK&#187;</text><line style="stroke:#181818;stroke-width:1;" x1="76.13" x2="340.2355" y1="63.2969" y2="63.2969"/><g data-visibility-modifier="IE_MANDATORY"><ellipse cx="86.13" cy="76.9453" fill="#000000" rx="3" ry="3" style="stroke:#000000;stroke-width:1;"/></g><text fill="#000000" font-family="sans-serif" font-size="14" lengthAdjust="spacing" textLength="240.1055" x="95.13" y="80.292">original_filename : VARCHAR(255)</text><g data-visibility-modifier="IE_MANDATORY"><ellipse cx="86.13" cy="93.2422" fill="#000000" rx="3" ry="3" style="stroke:#000000;stroke-width:1;"/></g><text fill="#000000" font-family="sans-serif" font-size="14" lengthAdjust="spacing" textLength="134.0664" x="95.13" y="96.5889">size_bytes : BIGINT</text><text fill="#000000" font-family="sans-serif" font-size="14" lengthAdjust="spacing" textLength="211.627" x="95.13" y="112.8857">content_type : VARCHAR(100)</text><g data-visibility-modifier="IE_MANDATORY"><ellipse cx="86.13" cy="125.8359" fill="#000000" rx="3" ry="3" style="stroke:#000000;stroke-width:1;"/></g><text fill="#000000" font-family="sans-serif" font-size="14" lengthAdjust="spacing" textLength="211.7637" x="95.13" y="129.1826">storage_path : VARCHAR(500)</text><g data-visibility-modifier="IE_MANDATORY"><ellipse cx="86.13" cy="142.1328" fill="#000000" rx="3" ry="3" style="stroke:#000000;stroke-width:1;"/></g><text fill="#000000" font-family="sans-serif" font-size="14" lengthAdjust="spacing" textLength="181.0088" x="95.13" y="145.4795">uploaded_at : TIMESTAMP</text></g><!--class analysis_reports--><g class="entity" data-qualified-name="analysis_reports" data-source-line="11" id="ent0003"><rect fill="#F1F1F1" height="162.0781" rx="2.5" ry="2.5" style="stroke:#181818;stroke-width:0.5;" width="402.373" x="7" y="229.78"/><ellipse cx="146.9146" cy="245.78" fill="#ADD1B2" rx="11" ry="11" style="stroke:#181818;stroke-width:1;"/><path d="M151.0239,251.78 L143.3052,251.78 L143.3052,239.3894 L151.0239,239.3894 L151.0239,241.5456 L145.7583,241.5456 L145.7583,244.2175 L150.5239,244.2175 L150.5239,246.3738 L145.7583,246.3738 L145.7583,249.6238 L151.0239,249.6238 L151.0239,251.78 Z " fill="#000000"/><text fill="#000000" font-family="sans-serif" font-size="14" lengthAdjust="spacing" textLength="114.0439" x="167.4146" y="250.6267">analysis_reports</text><line style="stroke:#181818;stroke-width:0.5;" x1="8" x2="408.373" y1="261.78" y2="261.78"/><g data-visibility-modifier="IE_MANDATORY"><ellipse cx="18" cy="275.4284" fill="#000000" rx="3" ry="3" style="stroke:#000000;stroke-width:1;"/></g><text fill="#000000" font-family="sans-serif" font-size="14" lengthAdjust="spacing" textLength="162.8252" x="27" y="278.7751">id : VARCHAR(36) &#171;PK&#187;</text><line style="stroke:#181818;stroke-width:1;" x1="8" x2="408.373" y1="286.0769" y2="286.0769"/><g data-visibility-modifier="IE_MANDATORY"><ellipse cx="18" cy="299.7253" fill="#000000" rx="3" ry="3" style="stroke:#000000;stroke-width:1;"/></g><text fill="#000000" font-family="sans-serif" font-size="14" lengthAdjust="spacing" textLength="190.7568" x="27" y="303.072">file_id : VARCHAR(36) &#171;FK&#187;</text><g data-visibility-modifier="IE_MANDATORY"><ellipse cx="18" cy="316.0222" fill="#000000" rx="3" ry="3" style="stroke:#000000;stroke-width:1;"/></g><text fill="#000000" font-family="sans-serif" font-size="14" lengthAdjust="spacing" textLength="219.9736" x="27" y="319.3689">student_name : VARCHAR(255)</text><g data-visibility-modifier="IE_MANDATORY"><ellipse cx="18" cy="332.3191" fill="#000000" rx="3" ry="3" style="stroke:#000000;stroke-width:1;"/></g><text fill="#000000" font-family="sans-serif" font-size="14" lengthAdjust="spacing" textLength="376.373" x="27" y="335.6657">status : VARCHAR(20) &#171;ACCEPTED/NEEDS_REVISION&#187;</text><text fill="#000000" font-family="sans-serif" font-size="14" lengthAdjust="spacing" textLength="171.917" x="27" y="351.9626">issues : VARCHAR(2000)</text><text fill="#000000" font-family="sans-serif" font-size="14" lengthAdjust="spacing" textLength="238.1504" x="27" y="368.2595">word_cloud_path : VARCHAR(500)</text><g data-visibility-modifier="IE_MANDATORY"><ellipse cx="18" cy="381.2097" fill="#000000" rx="3" ry="3" style="stroke:#000000;stroke-width:1;"/></g><text fill="#000000" font-family="sans-serif" font-size="14" lengthAdjust="spacing" textLength="178.8828" x="27" y="384.5564">analyzed_at : TIMESTAMP</text></g><!--link file_metadata to analysis_reports--><g class="link" data-entity-1="ent0002" data-entity-2="ent0003" data-link-type="crowfoot" data-source-line="22" id="lnk4"><path codeLine="22" d="M208.19,161.01 C208.19,185.26 208.19,186.46 208.19,211.31" fill="none" id="file_metadata-analysis_reports" style="stroke:#181818;stroke-width:1;"/><line style="stroke:#181818;stroke-width:1;" x1="204.19" x2="212.19" y1="157.01" y2="157.01"/><line style="stroke:#181818;stroke-width:1;" x1="204.19" x2="212.19" y1="160.01" y2="160.01"/><line style="stroke:#181818;stroke-width:1;" x1="208.19" x2="208.19" y1="161.01" y2="153.01"/><line style="stroke:#181818;stroke-width:1;" x1="208.19" x2="214.19" y1="221.31" y2="229.31"/><line style="stroke:#181818;stroke-width:1;" x1="208.19" x2="202.19" y1="221.31" y2="229.31"/><line style="stroke:#181818;stroke-width:1;" x1="208.19" x2="208.19" y1="221.31" y2="229.31"/><ellipse cx="208.19" cy="215.31" fill="none" rx="4" ry="4" style="stroke:#181818;stroke-width:1;"/><text fill="#000000" font-family="sans-serif" font-size="13" lengthAdjust="spacing" textLength="95.4814" x="209.19" y="195.8469">file_id &#8594; file_id</text></g><?plantuml-src bP71QeD068JlFiNYgIb8R8izb12mPjjAYHMLN9Tjzc-wO5nnVoacwRKFq4ViaqH5MnD2e7kTRuP_PY53YHKntsGAR0t81KTkagr1wdT9f21tPE56tfCRNTpSZiXa4ZvFfwrgMHsa2hcI6KzP4vBnDGmyruupwZ0jDy1UAmHTw_V-enyahR9K6KA63AjywBooxLydgeAlWEKStmU4yqUKUQgu0C4ura3YpscSkFFG-3GCw1ho-i9AIyqAo5M1-fybsu5Ea0yzsPnPYgR8cGcGOwc7cjrak9v7muJEnW6bivX5TE77_alG1KkjIpWqzSK_L27OCbMbEBDDMtnpSfk3NoUxdMMfBJaUgZQPVVkVh-z-2NCF?></g></svg>