<svg xmlns="http://www.w3.org/2000/svg" xmlns:xlink="http://www.w3.org/1999/xlink" contentStyleType="text/css" data-diagram-type="SEQUENCE" height="947px" preserveAspectRatio="none" style="width:1003px;height:947px;background:#FFFFFF;" version="1.1" viewBox="0 0 1003 947" width="1003px" zoomAndPan="magnify"><?plantuml 1.2026.4beta2?><defs/><g><rect fill="none" height="308.3984" style="stroke:#000000;stroke-width:1.5;" width="614.9028" x="373.0669" y="464.4531"/><g class="participant-lifeline" data-entity-uid="part1" data-qualified-name="User" data-source-line="1" id="part1-lifeline"><g><title>............</title><rect fill="#000000" fill-opacity="0.00000" height="779.6563" width="8" x="55.5498" y="83.5938"/><line style="stroke:#181818;stroke-width:0.5;stroke-dasharray:5,5;" x1="59" x2="59" y1="83.5938" y2="863.25"/></g></g><g class="participant-lifeline" data-entity-uid="part2" data-qualified-name="GW" data-source-line="2" id="part2-lifeline"><g><title>API Gateway</title><rect fill="#000000" fill-opacity="0.00000" height="779.6563" width="8" x="288.3369" y="83.5938"/><line style="stroke:#181818;stroke-width:0.5;stroke-dasharray:5,5;" x1="292.1152" x2="292.1152" y1="83.5938" y2="863.25"/></g></g><g class="participant-lifeline" data-entity-uid="part3" data-qualified-name="FS" data-source-line="3" id="part3-lifeline"><g><title>File Service</title><rect fill="#000000" fill-opacity="0.00000" height="779.6563" width="8" x="426.3853" y="83.5938"/><line style="stroke:#181818;stroke-width:0.5;stroke-dasharray:5,5;" x1="430.0669" x2="430.0669" y1="83.5938" y2="863.25"/></g></g><g class="participant-lifeline" data-entity-uid="part4" data-qualified-name="FDB" data-source-line="4" id="part4-lifeline"><g><title>H2</title><rect fill="#000000" fill-opacity="0.00000" height="779.6563" width="8" x="590.8208" y="83.5938"/><line style="stroke:#181818;stroke-width:0.5;stroke-dasharray:5,5;" x1="594.7334" x2="594.7334" y1="83.5938" y2="863.25"/></g></g><g class="participant-lifeline" data-entity-uid="part5" data-qualified-name="AS" data-source-line="5" id="part5-lifeline"><g><title>Analysis Service</title><rect fill="#000000" fill-opacity="0.00000" height="779.6563" width="8" x="718.415" y="83.5938"/><line style="stroke:#181818;stroke-width:0.5;stroke-dasharray:5,5;" x1="721.4785" x2="721.4785" y1="83.5938" y2="863.25"/></g></g><g class="participant-lifeline" data-entity-uid="part6" data-qualified-name="ADB" data-source-line="6" id="part6-lifeline"><g><title>H2</title><rect fill="#000000" fill-opacity="0.00000" height="779.6563" width="8" x="913.9478" y="83.5938"/><line style="stroke:#181818;stroke-width:0.5;stroke-dasharray:5,5;" x1="917.9258" x2="917.9258" y1="83.5938" y2="863.25"/></g></g><g class="participant participant-head" data-entity-uid="part1" data-qualified-name="User" data-source-line="1" id="part1-head"><text fill="#000000" font-family="sans-serif" font-size="14" lengthAdjust="spacing" textLength="103.0996" x="5" y="80.292">&#1055;&#1086;&#1083;&#1100;&#1079;&#1086;&#1074;&#1072;&#1090;&#1077;&#1083;&#1100;</text><ellipse cx="59.5498" cy="15.7969" fill="#E2E2F0" rx="8" ry="8" style="stroke:#181818;stroke-width:0.5;"/><path d="M59.5498,23.7969 L59.5498,50.7969 M46.5498,31.7969 L72.5498,31.7969 M59.5498,50.7969 L46.5498,65.7969 M59.5498,50.7969 L72.5498,65.7969" fill="none" style="stroke:#181818;stroke-width:0.5;"/></g><g class="participant participant-tail" data-entity-uid="part1" data-qualified-name="User" data-source-line="1" id="part1-tail"><text fill="#000000" font-family="sans-serif" font-size="14" lengthAdjust="spacing" textLength="103.0996" x="5" y="875.2451">&#1055;&#1086;&#1083;&#1100;&#1079;&#1086;&#1074;&#1072;&#1090;&#1077;&#1083;&#1100;</text><ellipse cx="59.5498" cy="887.0469" fill="#E2E2F0" rx="8" ry="8" style="stroke:#181818;stroke-width:0.5;"/><path d="M59.5498,895.0469 L59.5498,922.0469 M46.5498,903.0469 L72.5498,903.0469 M59.5498,922.0469 L46.5498,937.0469 M59.5498,922.0469 L72.5498,937.0469" fill="none" style="stroke:#181818;stroke-width:0.5;"/></g><g class="participant participant-head" data-entity-uid="part2" data-qualified-name="GW" data-source-line="2" id="part2-head"><rect fill="#E2E2F0" height="46.5938" rx="2.5" ry="2.5" style="stroke:#181818;stroke-width:0.5;" width="102.4434" x="241.1152" y="36"/><text fill="#000000" font-family="sans-serif" font-size="14" lengthAdjust="spacing" textLength="88.4434" x="248.1152" y="55.9951">API Gateway</text><text fill="#000000" font-family="sans-serif" font-size="14" lengthAdjust="spacing" textLength="51.2695" x="266.7021" y="72.292">(:8080)</text></g><g class="participant participant-tail" data-entity-uid="part2" data-qualified-name="GW" data-source-line="2" id="part2-tail"><rect fill="#E2E2F0" height="46.5938" rx="2.5" ry="2.5" style="stroke:#181818;stroke-width:0.5;" width="102.4434" x="241.1152" y="862.25"/><text fill="#000000" font-family="sans-serif" font-size="14" lengthAdjust="spacing" textLength="88.4434" x="248.1152" y="882.2451">API Gateway</text><text fill="#000000" font-family="sans-serif" font-size="14" lengthAdjust="spacing" textLength="51.2695" x="266.7021" y="898.542">(:8080)</text></g><g class="participant participant-head" data-entity-uid="part3" data-qualified-name="FS" data-source-line="3" id="part3-head"><rect fill="#E2E2F0" height="46.5938" rx="2.5" ry="2.5" style="stroke:#181818;stroke-width:0.5;" width="94.6367" x="383.0669" y="36"/><text fill="#000000" font-family="sans-serif" font-size="14" lengthAdjust="spacing" textLength="80.6367" x="390.0669" y="55.9951">File Service</text><text fill="#000000" font-family="sans-serif" font-size="14" lengthAdjust="spacing" textLength="51.2695" x="404.7505" y="72.292">(:8081)</text></g><g class="participant participant-tail" data-entity-uid="part3" data-qualified-name="FS" data-source-line="3" id="part3-tail"><rect fill="#E2E2F0" height="46.5938" rx="2.5" ry="2.5" style="stroke:#181818;stroke-width:0.5;" width="94.6367" x="383.0669" y="862.25"/><text fill="#000000" font-family="sans-serif" font-size="14" lengthAdjust="spacing" textLength="80.6367" x="390.0669" y="882.2451">File Service</text><text fill="#000000" font-family="sans-serif" font-size="14" lengthAdjust="spacing" textLength="51.2695" x="404.7505" y="898.542">(:8081)</text></g><g class="participant participant-head" data-entity-uid="part4" data-qualified-name="FDB" data-source-line="4" id="part4-head"><text fill="#000000" font-family="sans-serif" font-size="14" lengthAdjust="spacing" textLength="19.4346" x="582.1035" y="63.9951">H2</text><text fill="#000000" font-family="sans-serif" font-size="14" lengthAdjust="spacing" textLength="96.1748" x="543.7334" y="80.292">file_metadata</text><path d="M576.8208,15 C576.8208,5 594.8208,5 594.8208,5 C594.8208,5 612.8208,5 612.8208,15 L612.8208,41 C612.8208,51 594.8208,51 594.8208,51 C594.8208,51 576.8208,51 576.8208,41 L576.8208,15" fill="#E2E2F0" style="stroke:#181818;stroke-width:0.5;"/><path d="M576.8208,15 C576.8208,25 594.8208,25 594.8208,25 C594.8208,25 612.8208,25 612.8208,15" fill="none" style="stroke:#181818;stroke-width:0.5;"/></g><g class="participant participant-tail" data-entity-uid="part4" data-qualified-name="FDB" data-source-line="4" id="part4-tail"><text fill="#000000" font-family="sans-serif" font-size="14" lengthAdjust="spacing" textLength="19.4346" x="582.1035" y="875.2451">H2</text><text fill="#000000" font-family="sans-serif" font-size="14" lengthAdjust="spacing" textLength="96.1748" x="543.7334" y="891.542">file_metadata</text><path d="M576.8208,904.8438 C576.8208,894.8438 594.8208,894.8438 594.8208,894.8438 C594.8208,894.8438 612.8208,894.8438 612.8208,904.8438 L612.8208,930.8438 C612.8208,940.8438 594.8208,940.8438 594.8208,940.8438 C594.8208,940.8438 576.8208,940.8438 576.8208,930.8438 L576.8208,904.8438" fill="#E2E2F0" style="stroke:#181818;stroke-width:0.5;"/><path d="M576.8208,904.8438 C576.8208,914.8438 594.8208,914.8438 594.8208,914.8438 C594.8208,914.8438 612.8208,914.8438 612.8208,904.8438" fill="none" style="stroke:#181818;stroke-width:0.5;"/></g><g class="participant participant-head" data-entity-uid="part5" data-qualified-name="AS" data-source-line="5" id="part5-head"><rect fill="#E2E2F0" height="46.5938" rx="2.5" ry="2.5" style="stroke:#181818;stroke-width:0.5;" width="127.873" x="658.4785" y="36"/><text fill="#000000" font-family="sans-serif" font-size="14" lengthAdjust="spacing" textLength="113.873" x="665.4785" y="55.9951">Analysis Service</text><text fill="#000000" font-family="sans-serif" font-size="14" lengthAdjust="spacing" textLength="51.2695" x="696.7803" y="72.292">(:8082)</text></g><g class="participant participant-tail" data-entity-uid="part5" data-qualified-name="AS" data-source-line="5" id="part5-tail"><rect fill="#E2E2F0" height="46.5938" rx="2.5" ry="2.5" style="stroke:#181818;stroke-width:0.5;" width="127.873" x="658.4785" y="862.25"/><text fill="#000000" font-family="sans-serif" font-size="14" lengthAdjust="spacing" textLength="113.873" x="665.4785" y="882.2451">Analysis Service</text><text fill="#000000" font-family="sans-serif" font-size="14" lengthAdjust="spacing" textLength="51.2695" x="696.7803" y="898.542">(:8082)</text></g><g class="participant participant-head" data-entity-uid="part6" data-qualified-name="ADB" data-source-line="6" id="part6-head"><text fill="#000000" font-family="sans-serif" font-size="14" lengthAdjust="spacing" textLength="19.4346" x="905.2305" y="63.9951">H2</text><text fill="#000000" font-family="sans-serif" font-size="14" lengthAdjust="spacing" textLength="114.0439" x="857.9258" y="80.292">analysis_reports</text><path d="M899.9478,15 C899.9478,5 917.9478,5 917.9478,5 C917.9478,5 935.9478,5 935.9478,15 L935.9478,41 C935.9478,51 917.9478,51 917.9478,51 C917.9478,51 899.9478,51 899.9478,41 L899.9478,15" fill="#E2E2F0" style="stroke:#181818;stroke-width:0.5;"/><path d="M899.9478,15 C899.9478,25 917.9478,25 917.9478,25 C917.9478,25 935.9478,25 935.9478,15" fill="none" style="stroke:#181818;stroke-width:0.5;"/></g><g class="participant participant-tail" data-entity-uid="part6" data-qualified-name="ADB" data-source-line="6" id="part6-tail"><text fill="#000000" font-family="sans-serif" font-size="14" lengthAdjust="spacing" textLength="19.4346" x="905.2305" y="875.2451">H2</text><text fill="#000000" font-family="sans-serif" font-size="14" lengthAdjust="spacing" textLength="114.0439" x="857.9258" y="891.542">analysis_reports</text><path d="M899.9478,904.8438 C899.9478,894.8438 917.9478,894.8438 917.9478,894.8438 C917.9478,894.8438 935.9478,894.8438 935.9478,904.8438 L935.9478,930.8438 C935.9478,940.8438 917.9478,940.8438 917.9478,940.8438 C917.9478,940.8438 899.9478,940.8438 899.9478,930.8438 L899.9478,904.8438" fill="#E2E2F0" style="stroke:#181818;stroke-width:0.5;"/><path d="M899.9478,904.8438 C899.9478,914.8438 917.9478,914.8438 917.9478,914.8438 C917.9478,914.8438 935.9478,914.8438 935.9478,904.8438" fill="none" style="stroke:#181818;stroke-width:0.5;"/></g><g class="message" data-entity-1="part1" data-entity-2="part2" data-source-line="8" id="msg1"><polygon fill="#181818" points="280.3369,125.8594,290.3369,129.8594,280.3369,133.8594,284.3369,129.8594" style="stroke:#181818;stroke-width:1;"/><line style="stroke:#181818;stroke-width:1;" x1="59.5498" x2="286.3369" y1="129.8594" y2="129.8594"/><text fill="#000000" font-family="sans-serif" font-size="13" lengthAdjust="spacing" textLength="125.563" x="66.5498" y="109.6606">POST /api/v1/works</text><text fill="#000000" font-family="sans-serif" font-size="13" lengthAdjust="spacing" textLength="137.1475" x="66.5498" y="124.7935">(file + studentName)</text></g><g class="message" data-entity-1="part2" data-entity-2="part3" data-source-line="9" id="msg2"><polygon fill="#181818" points="418.3853,170.125,428.3853,174.125,418.3853,178.125,422.3853,174.125" style="stroke:#181818;stroke-width:1;"/><line style="stroke:#181818;stroke-width:1;" x1="292.3369" x2="424.3853" y1="174.125" y2="174.125"/><text fill="#000000" font-family="sans-serif" font-size="13" lengthAdjust="spacing" textLength="113.9023" x="299.3369" y="153.9263">POST /api/v1/files</text><text fill="#000000" font-family="sans-serif" font-size="13" lengthAdjust="spacing" textLength="29.9419" x="299.3369" y="169.0591">(file)</text></g><g class="message" data-entity-1="part3" data-entity-2="part4" data-source-line="10" id="msg3"><polygon fill="#181818" points="582.8208,199.2578,592.8208,203.2578,582.8208,207.2578,586.8208,203.2578" style="stroke:#181818;stroke-width:1;"/><line style="stroke:#181818;stroke-width:1;" x1="430.3853" x2="588.8208" y1="203.2578" y2="203.2578"/><text fill="#000000" font-family="sans-serif" font-size="13" lengthAdjust="spacing" textLength="140.4355" x="437.3853" y="198.1919">INSERT file_metadata</text></g><g class="message" data-entity-1="part3" data-entity-2="part2" data-source-line="11" id="msg4"><polygon fill="#181818" points="303.3369,228.3906,293.3369,232.3906,303.3369,236.3906,299.3369,232.3906" style="stroke:#181818;stroke-width:1;"/><line style="stroke:#181818;stroke-width:1;stroke-dasharray:2,2;" x1="297.3369" x2="429.3853" y1="232.3906" y2="232.3906"/><text fill="#000000" font-family="sans-serif" font-size="13" lengthAdjust="spacing" textLength="114.0483" x="309.3369" y="227.3247">fileId + metadata</text></g><g class="message" data-entity-1="part2" data-entity-2="part5" data-source-line="13" id="msg5"><polygon fill="#181818" points="710.415,272.6563,720.415,276.6563,710.415,280.6563,714.415,276.6563" style="stroke:#181818;stroke-width:1;"/><line style="stroke:#181818;stroke-width:1;" x1="292.3369" x2="716.415" y1="276.6563" y2="276.6563"/><text fill="#000000" font-family="sans-serif" font-size="13" lengthAdjust="spacing" textLength="139.9658" x="299.3369" y="256.4575">POST /api/v1/analysis</text><text fill="#000000" font-family="sans-serif" font-size="13" lengthAdjust="spacing" textLength="149.2334" x="299.3369" y="271.5903">(fileId + studentName)</text></g><g class="message" data-entity-1="part5" data-entity-2="part3" data-source-line="14" id="msg6"><polygon fill="#181818" points="441.3853,301.7891,431.3853,305.7891,441.3853,309.7891,437.3853,305.7891" style="stroke:#181818;stroke-width:1;"/><line style="stroke:#181818;stroke-width:1;" x1="435.3853" x2="721.415" y1="305.7891" y2="305.7891"/><text fill="#000000" font-family="sans-serif" font-size="13" lengthAdjust="spacing" textLength="226.0591" x="447.3853" y="300.7231">GET /api/v1/files/{fileId}/metadata</text></g><g class="message" data-entity-1="part3" data-entity-2="part5" data-source-line="15" id="msg7"><polygon fill="#181818" points="710.415,330.9219,720.415,334.9219,710.415,338.9219,714.415,334.9219" style="stroke:#181818;stroke-width:1;"/><line style="stroke:#181818;stroke-width:1;stroke-dasharray:2,2;" x1="430.3853" x2="716.415" y1="334.9219" y2="334.9219"/><text fill="#000000" font-family="sans-serif" font-size="13" lengthAdjust="spacing" textLength="268.0298" x="437.3853" y="329.856">originalFilename, sizeBytes, contentType</text></g><g class="message" data-entity-1="part5" data-entity-2="part5" data-source-line="17" id="msg8"><line style="stroke:#181818;stroke-width:1;" x1="722.415" x2="764.415" y1="379.1875" y2="379.1875"/><line style="stroke:#181818;stroke-width:1;" x1="764.415" x2="764.415" y1="379.1875" y2="392.1875"/><line style="stroke:#181818;stroke-width:1;" x1="723.415" x2="764.415" y1="392.1875" y2="392.1875"/><polygon fill="#181818" points="733.415,388.1875,723.415,392.1875,733.415,396.1875,729.415,392.1875" style="stroke:#181818;stroke-width:1;"/><text fill="#000000" font-family="sans-serif" font-size="13" lengthAdjust="spacing" textLength="108.8433" x="729.415" y="358.9888">validateFormat()</text><text fill="#000000" font-family="sans-serif" font-size="13" lengthAdjust="spacing" textLength="101.3149" x="729.415" y="374.1216">(.pdf/.docx/.txt)</text></g><g class="message" data-entity-1="part5" data-entity-2="part5" data-source-line="18" id="msg9"><line style="stroke:#181818;stroke-width:1;" x1="722.415" x2="764.415" y1="436.4531" y2="436.4531"/><line style="stroke:#181818;stroke-width:1;" x1="764.415" x2="764.415" y1="436.4531" y2="449.4531"/><line style="stroke:#181818;stroke-width:1;" x1="723.415" x2="764.415" y1="449.4531" y2="449.4531"/><polygon fill="#181818" points="733.415,445.4531,723.415,449.4531,733.415,453.4531,729.415,449.4531" style="stroke:#181818;stroke-width:1;"/><text fill="#000000" font-family="sans-serif" font-size="13" lengthAdjust="spacing" textLength="89.0259" x="729.415" y="416.2544">validateSize()</text><text fill="#000000" font-family="sans-serif" font-size="13" lengthAdjust="spacing" textLength="68.5991" x="729.415" y="431.3872">(&lt;= 1 MB)</text></g><path d="M373.0669,464.4531 L437.5098,464.4531 L437.5098,471.5859 L427.5098,481.5859 L373.0669,481.5859 L373.0669,464.4531" fill="#EEEEEE" style="stroke:#000000;stroke-width:1.5;"/><rect fill="none" height="308.3984" style="stroke:#000000;stroke-width:1.5;" width="614.9028" x="373.0669" y="464.4531"/><text fill="#000000" font-family="sans-serif" font-size="13" font-weight="700" lengthAdjust="spacing" textLength="19.4429" x="388.0669" y="477.52">alt</text><text fill="#000000" font-family="sans-serif" font-size="11" font-weight="700" lengthAdjust="spacing" textLength="102.0723" x="452.5098" y="476.6636">[&#1060;&#1072;&#1081;&#1083; &#1074;&#1072;&#1083;&#1080;&#1076;&#1077;&#1085;]</text><g class="message" data-entity-1="part5" data-entity-2="part3" data-source-line="21" id="msg10"><polygon fill="#181818" points="441.3853,513.8516,431.3853,517.8516,441.3853,521.8516,437.3853,517.8516" style="stroke:#181818;stroke-width:1;"/><line style="stroke:#181818;stroke-width:1;" x1="435.3853" x2="721.415" y1="517.8516" y2="517.8516"/><text fill="#000000" font-family="sans-serif" font-size="13" lengthAdjust="spacing" textLength="158.6724" x="447.3853" y="497.6528">GET /api/v1/files/{fileId}</text><text fill="#000000" font-family="sans-serif" font-size="13" lengthAdjust="spacing" textLength="180.6416" x="447.3853" y="512.7856">(&#1089;&#1082;&#1072;&#1095;&#1072;&#1090;&#1100; &#1076;&#1083;&#1103; &#1086;&#1073;&#1083;&#1072;&#1082;&#1072; &#1089;&#1083;&#1086;&#1074;)</text></g><g class="message" data-entity-1="part3" data-entity-2="part5" data-source-line="22" id="msg11"><polygon fill="#181818" points="710.415,542.9844,720.415,546.9844,710.415,550.9844,714.415,546.9844" style="stroke:#181818;stroke-width:1;"/><line style="stroke:#181818;stroke-width:1;stroke-dasharray:2,2;" x1="430.3853" x2="716.415" y1="546.9844" y2="546.9844"/><text fill="#000000" font-family="sans-serif" font-size="13" lengthAdjust="spacing" textLength="59.7441" x="437.3853" y="541.9185">file bytes</text></g><g class="message" data-entity-1="part5" data-entity-2="part5" data-source-line="23" id="msg12"><line style="stroke:#181818;stroke-width:1;" x1="722.415" x2="764.415" y1="591.25" y2="591.25"/><line style="stroke:#181818;stroke-width:1;" x1="764.415" x2="764.415" y1="591.25" y2="604.25"/><line style="stroke:#181818;stroke-width:1;" x1="723.415" x2="764.415" y1="604.25" y2="604.25"/><polygon fill="#181818" points="733.415,600.25,723.415,604.25,733.415,608.25,729.415,604.25" style="stroke:#181818;stroke-width:1;"/><text fill="#000000" font-family="sans-serif" font-size="13" lengthAdjust="spacing" textLength="85.2173" x="729.415" y="571.0513">extractText()</text><text fill="#000000" font-family="sans-serif" font-size="13" lengthAdjust="spacing" textLength="83.5986" x="729.415" y="586.1841">(&#1090;&#1086;&#1083;&#1100;&#1082;&#1086; .txt)</text></g><g class="message" data-entity-1="part5" data-entity-2="part5" data-source-line="24" id="msg13"><line style="stroke:#181818;stroke-width:1;" x1="722.415" x2="764.415" y1="648.5156" y2="648.5156"/><line style="stroke:#181818;stroke-width:1;" x1="764.415" x2="764.415" y1="648.5156" y2="661.5156"/><line style="stroke:#181818;stroke-width:1;" x1="723.415" x2="764.415" y1="661.5156" y2="661.5156"/><polygon fill="#181818" points="733.415,657.5156,723.415,661.5156,733.415,665.5156,729.415,661.5156" style="stroke:#181818;stroke-width:1;"/><text fill="#000000" font-family="sans-serif" font-size="13" lengthAdjust="spacing" textLength="140.5752" x="729.415" y="628.3169">generateWordCloud()</text><text fill="#000000" font-family="sans-serif" font-size="13" lengthAdjust="spacing" textLength="175.1699" x="729.415" y="643.4497">&#8594; PNG &#1074; /data/wordclouds/</text></g><g class="message" data-entity-1="part5" data-entity-2="part6" data-source-line="25" id="msg14"><polygon fill="#181818" points="905.9478,701.7813,915.9478,705.7813,905.9478,709.7813,909.9478,705.7813" style="stroke:#181818;stroke-width:1;"/><line style="stroke:#181818;stroke-width:1;" x1="722.415" x2="911.9478" y1="705.7813" y2="705.7813"/><text fill="#000000" font-family="sans-serif" font-size="13" lengthAdjust="spacing" textLength="157.0283" x="729.415" y="685.5825">INSERT analysis_reports</text><text fill="#000000" font-family="sans-serif" font-size="13" lengthAdjust="spacing" textLength="127.8672" x="729.415" y="700.7153">(status: ACCEPTED)</text></g><line style="stroke:#000000;stroke-width:1;stroke-dasharray:2,2;" x1="373.0669" x2="987.9697" y1="714.7813" y2="714.7813"/><text fill="#000000" font-family="sans-serif" font-size="11" font-weight="700" lengthAdjust="spacing" textLength="135.2173" x="378.0669" y="724.9917">[&#1054;&#1096;&#1080;&#1073;&#1082;&#1072; &#1074;&#1072;&#1083;&#1080;&#1076;&#1072;&#1094;&#1080;&#1080;]</text><g class="message" data-entity-1="part5" data-entity-2="part6" data-source-line="27" id="msg15"><polygon fill="#181818" points="905.9478,760.8516,915.9478,764.8516,905.9478,768.8516,909.9478,764.8516" style="stroke:#181818;stroke-width:1;"/><line style="stroke:#181818;stroke-width:1;" x1="722.415" x2="911.9478" y1="764.8516" y2="764.8516"/><text fill="#000000" font-family="sans-serif" font-size="13" lengthAdjust="spacing" textLength="157.0283" x="729.415" y="744.6528">INSERT analysis_reports</text><text fill="#000000" font-family="sans-serif" font-size="13" lengthAdjust="spacing" textLength="171.5327" x="729.415" y="759.7856">(status: NEEDS_REVISION)</text></g><g class="message" data-entity-1="part5" data-entity-2="part2" data-source-line="30" id="msg16"><polygon fill="#181818" points="303.3369,796.9844,293.3369,800.9844,303.3369,804.9844,299.3369,800.9844" style="stroke:#181818;stroke-width:1;"/><line style="stroke:#181818;stroke-width:1;stroke-dasharray:2,2;" x1="297.3369" x2="721.415" y1="800.9844" y2="800.9844"/><text fill="#000000" font-family="sans-serif" font-size="13" lengthAdjust="spacing" textLength="275.52" x="309.3369" y="795.9185">reportId + status + issues + wordcloudUrl</text></g><g class="message" data-entity-1="part2" data-entity-2="part1" data-source-line="31" id="msg17"><polygon fill="#181818" points="70.5498,841.25,60.5498,845.25,70.5498,849.25,66.5498,845.25" style="stroke:#181818;stroke-width:1;"/><line style="stroke:#181818;stroke-width:1;stroke-dasharray:2,2;" x1="64.5498" x2="291.3369" y1="845.25" y2="845.25"/><text fill="#000000" font-family="sans-serif" font-size="13" lengthAdjust="spacing" textLength="80.6787" x="76.5498" y="825.0513">201 Created</text><text fill="#000000" font-family="sans-serif" font-size="13" lengthAdjust="spacing" textLength="208.7871" x="76.5498" y="840.1841">{workId, fileId, reportId, status}</text></g><?plantuml-src bLDDRjD05Dxx54zPrIB4ILPL14ZvSK8Mf56TaasaQ6fFAml7ZcOcQKBL1ImAYqf8700s721584eZUeRn5JW9xzbEb5Wim9kn_RwVzsQ-OQwA11JqP_sWr_6D_e7hLxsAt-hlz5q09k54Sc5CcL2-wqzPgA1GxtUXmnI_OCjHU50xB1-MpGJQ6Uu3stx0mU5YxhiyGrPIPDinFAROAPCS2i-he_0CeUC9Lun-fv1M8sSRic0fVPbJhAQAzRmYo-1ZmQUHK395eQX14y7ZPzXk3Vf7pW0iDlMjUSMwYCGhYRBK33m2gMOU3rMFJRXfT8P4QJiv2a4t5DDeEmcerQX1j-VOnmFOcokfPyPKw7heiYrc5lMynMQGp2KXxRLMTpQjTUnSPzPbIhcoyZsGJIJySn_LwPn2b2g2z5_pnb9nMGGt2XLQ39PJRcGMn9cpm4STtex4XAa34xigJRqpg-H5xi8ggOKo_u9sK3V1FdaA5NZHC0s31Ghq5xtIF_KQA7LwhU_qDqpUBmFm-PUfK31-e-yniUyejV4DeC0w_W2OurlKMr4D4BAcO9k9xixyoJcVqhWxZbJW2oMOgmQu9btZXKWloBr-W7J6VS8v3xd0EOUHy9f1DFE8zllw8_Hx7HmEBDfwofVdKbLQk_oTkEH3YzvICJMJDQWtctP_OBTCWmUOSVqfVe_xTPjCkBDzg_WQrxl_r-_PTiiP7zilkqxtg8SkePUUUnROb96bZoZuuaivu_IodUn414cEaKJNh0RLSWMQWkFUUAFmacvOrojcwIzkHOkPvjKV?></g></svg>